<svg width="843" height="202" viewBox="0 0 843 202" fill="none" xmlns="http://www.w3.org/2000/svg">
<path d="M48.1513 67.6683V150.318H37.6058V67.6683H6.62856V58.0456H79.1286V67.6683H48.1513ZM79.0606 120C80.5106 134.764 91.056 143.068 103.052 143.068C112.411 143.068 119.002 139.246 124.538 133.446L130.865 139.114C124.011 146.759 115.706 151.9 102.788 151.9C84.0697 151.9 68.7788 137.532 68.7788 116.309C68.7788 96.5365 82.6197 80.7184 101.47 80.7184C121.638 80.7184 133.238 96.8002 133.238 116.837C133.238 117.759 133.238 118.814 133.106 120H79.0606ZM79.0606 112.487H122.956C121.902 100.096 114.783 89.2865 101.206 89.2865C89.3424 89.2865 80.3788 99.1729 79.0606 112.487ZM202.284 138.718C195.429 146.364 187.257 151.9 174.47 151.9C154.566 151.9 139.538 135.687 139.538 116.441C139.538 97.0638 154.566 80.7184 174.47 80.7184C187.388 80.7184 195.429 86.1229 201.757 92.8456L195.034 99.9638C189.629 94.2956 183.566 89.682 174.338 89.682C160.497 89.682 149.952 101.414 149.952 116.177C149.952 131.073 160.761 142.805 174.997 142.805C183.697 142.805 190.42 138.455 195.825 132.655L202.284 138.718ZM221.963 111.3V150.318H211.813V54.0911H221.963V94.032C226.445 86.6502 233.563 80.7184 245.295 80.7184C261.772 80.7184 271.395 91.7911 271.395 108.005V150.318H261.245V110.509C261.245 97.8547 254.39 89.9456 242.395 89.9456C230.663 89.9456 221.963 98.5138 221.963 111.3ZM366.595 135.687C356.972 145.441 346.427 151.9 329.686 151.9C303.059 151.9 283.418 130.941 283.418 104.314C283.418 77.9502 302.927 56.4638 330.082 56.4638C346.822 56.4638 356.841 62.3956 366.068 71.0956L358.95 78.7411C351.172 71.3593 342.472 66.0865 329.95 66.0865C309.518 66.0865 294.227 82.5638 294.227 104.05C294.227 125.537 309.65 142.277 329.95 142.277C342.604 142.277 350.909 137.4 359.741 128.964L366.595 135.687ZM400.51 90.2093C392.469 90.2093 386.141 92.3184 379.814 95.2184L376.782 86.9138C384.296 83.4865 391.678 81.2456 401.564 81.2456C420.15 81.2456 430.564 90.7365 430.564 108.664V150.318H420.81V140.037C416.064 146.232 408.155 151.768 396.16 151.768C383.505 151.768 370.719 144.65 370.719 130.414C370.719 115.914 382.582 108.268 399.85 108.268C408.55 108.268 414.746 109.455 420.81 111.168V108.796C420.81 96.5365 413.296 90.2093 400.51 90.2093ZM400.905 115.782C388.119 115.782 381 121.318 381 130.018C381 138.718 388.91 143.727 398.137 143.727C410.66 143.727 420.941 136.082 420.941 125.273V118.682C415.932 117.232 409.21 115.782 400.905 115.782ZM455.096 123.164V150.318H444.946V82.1684H455.096V99.9638C460.105 88.6274 469.991 80.4547 482.909 80.982V91.9229H482.118C467.223 91.9229 455.096 102.6 455.096 123.164ZM494.221 120C495.671 134.764 506.216 143.068 518.212 143.068C527.571 143.068 534.162 139.246 539.698 133.446L546.026 139.114C539.171 146.759 530.866 151.9 517.948 151.9C499.23 151.9 483.939 137.532 483.939 116.309C483.939 96.5365 497.78 80.7184 516.63 80.7184C536.798 80.7184 548.398 96.8002 548.398 116.837C548.398 117.759 548.398 118.814 548.266 120H494.221ZM494.221 112.487H538.116C537.062 100.096 529.944 89.2865 516.366 89.2865C504.503 89.2865 495.539 99.1729 494.221 112.487Z" fill="white"/>
<path d="M740.997 57.0682L783.047 150H771.842L761.033 125.614H710.81L699.869 150H689.192L731.242 57.0682H740.997ZM756.947 116.255L735.988 69.1954L714.897 116.255H756.947ZM803.352 150H793.202V53.7727H803.352V150ZM830.73 150H820.58V53.7727H830.73V150Z" fill="white"/>
<path d="M636.274 39.5544H655.702V122.262H674.205V140.95H655.702V170H633.869V140.95H568.553L564.298 124.668L636.274 39.5544ZM633.869 122.262V71.0094L591.312 122.262H633.869Z" fill="#2F65F4"/>
</svg>
